<svg width="60" height="60" viewBox="0 0 60 60" fill="none" xmlns="http://www.w3.org/2000/svg" xmlns:xlink="http://www.w3.org/1999/xlink">
<g clip-path="url(#clip0_41930_8162)">
<rect width="60" height="60" fill="url(#pattern0)"/>
<path d="M23.4 39.552L20.448 36.588L36.348 20.7L39.3 23.652L23.4 39.552Z" fill="url(#paint0_linear_41930_8162)"/>
<path d="M24.324 21.36L15.684 30L12.72 27.048L21.36 18.396L24.324 21.36ZM21.36 41.604L24.312 38.652L15.672 30.012L12.72 32.952L21.36 41.604Z" fill="url(#paint1_linear_41930_8162)"/>
<path d="M47.28 27.048L44.328 30L35.688 21.36L38.64 18.408L47.28 27.048ZM47.28 32.952L44.328 30L35.688 38.64L38.64 41.592L47.28 32.952Z" fill="url(#paint2_linear_41930_8162)"/>
</g>
<defs>
<pattern id="pattern0" patternContentUnits="objectBoundingBox" width="1" height="1">
<use xlink:href="#image0_41930_8162" transform="scale(0.002)"/>
</pattern>
<linearGradient id="paint0_linear_41930_8162" x1="20.449" y1="30.1219" x2="39.3014" y2="30.1219" gradientUnits="userSpaceOnUse">
<stop stop-color="#1381FF"/>
<stop offset="0.0780981" stop-color="#1376FF"/>
<stop offset="0.289" stop-color="#125CFF"/>
<stop offset="0.5081" stop-color="#124AFF"/>
<stop offset="0.7388" stop-color="#123FFF"/>
<stop offset="1" stop-color="#123CFF"/>
</linearGradient>
<linearGradient id="paint1_linear_41930_8162" x1="12.7195" y1="30" x2="24.3215" y2="30" gradientUnits="userSpaceOnUse">
<stop stop-color="#13E4E8"/>
<stop offset="1" stop-color="#1381FF"/>
</linearGradient>
<linearGradient id="paint2_linear_41930_8162" x1="35.6784" y1="30" x2="47.2805" y2="30" gradientUnits="userSpaceOnUse">
<stop stop-color="#1381FF"/>
<stop offset="0.1287" stop-color="#4271FF"/>
<stop offset="0.2599" stop-color="#6963FF"/>
<stop offset="0.3956" stop-color="#8A58FF"/>
<stop offset="0.5345" stop-color="#A44FFF"/>
<stop offset="0.678" stop-color="#B649FF"/>
<stop offset="0.8291" stop-color="#C045FF"/>
<stop offset="1" stop-color="#C444FF"/>
</linearGradient>
<clipPath id="clip0_41930_8162">
<rect width="60" height="60" rx="30" fill="white"/>
</clipPath>
</defs>
</svg>
